<svg class="railroad-diagram" width="468" height="71" viewBox="0 0 468 71" xmlns="http://www.w3.org/2000/svg" xmlns:xlink="http://www.w3.org/1999/xlink">
    <g transform="translate(.5 .5)">
        <g>
            <path d="M20 30v20m0 -10h20"></path>
        </g>
        <g>
            <path d="M40 40h0"></path>
            <path d="M204 40h0"></path>
            <path d="M40 40a10 10 0 0 0 10 -10v0a10 10 0 0 1 10 -10"></path>
            <g>
                <path d="M60 20h124"></path>
            </g>
            <path d="M184 20a10 10 0 0 1 10 10v0a10 10 0 0 0 10 10"></path>
            <path d="M40 40h20"></path>
            <g class="terminal ">
                <path d="M60 40h0"></path>
                <path d="M184 40h0"></path>
                <rect x="60" y="29" width="124" height="22" rx="10" ry="10"></rect>
                <text x="122" y="44">IdentifierLHS</text>
            </g>
            <path d="M184 40h20"></path>
        </g>
        <path d="M204 40h10"></path>
        <g>
            <path d="M214 40h0"></path>
            <g class="terminal ">
                <path d="M214 40h10"></path>
                <path d="M284 40h10"></path>
                <rect x="224" y="29" width="60" height="22" rx="10" ry="10"></rect>
                <text x="254" y="44">check</text>
            </g>
            <path d="M294 40h0"></path>
        </g>
        <path d="M294 40h10"></path>
        <path d="M304 40h10"></path>
        <g>
            <path d="M314 40h0"></path>
            <g class="terminal ">
                <path d="M314 40h10"></path>
                <path d="M408 40h10"></path>
                <rect x="324" y="29" width="84" height="22" rx="10" ry="10"></rect>
                <text x="366" y="44">CallExpr</text>
            </g>
            <path d="M418 40h0"></path>
        </g>
        <path d="M418 40h10"></path>
        <path d="M 428 40 h 20 m 0 -10 v 20"></path>
    </g>
    <style>svg.railroad-diagram {
        background-color: hsl(30,20%,95%);
        }
        svg.railroad-diagram path {
        stroke-width: 3;
        stroke: black;
        fill: rgba(0,0,0,0);
        }
        svg.railroad-diagram text {
        font: bold 14px monospace;
        text-anchor: middle;
        white-space: pre;
        }
        svg.railroad-diagram text.diagram-text {
        font-size: 12px;
        }
        svg.railroad-diagram text.diagram-arrow {
        font-size: 16px;
        }
        svg.railroad-diagram text.label {
        text-anchor: start;
        }
        svg.railroad-diagram text.comment {
        font: italic 12px monospace;
        }
        svg.railroad-diagram g.non-terminal text {
        /&#42;font-style: italic;&#42;/
        }
        svg.railroad-diagram rect {
        stroke-width: 3;
        stroke: black;
        fill: hsl(120,100%,90%);
        }
        svg.railroad-diagram rect.group-box {
        stroke: gray;
        stroke-dasharray: 10 5;
        fill: none;
        }
        svg.railroad-diagram path.diagram-text {
        stroke-width: 3;
        stroke: black;
        fill: white;
        cursor: help;
        }
        svg.railroad-diagram g.diagram-text:hover path.diagram-text {
        fill: #eee;
        }

        svg.railroad-diagram g.non-terminal rect {
        fill: hsl(60,100%,90%);
        }
    </style>
</svg>
