<svg class="railroad-diagram" width="352" height="80" viewBox="0 0 352 80" xmlns="http://www.w3.org/2000/svg" xmlns:xlink="http://www.w3.org/1999/xlink">
    <g transform="translate(.5 .5)">
        <g>
            <path d="M20 30v20m0 -10h20"></path>
        </g>
        <path d="M40 40h10"></path>
        <g>
            <path d="M50 40h0"></path>
            <g class="terminal ">
                <path d="M50 40h10"></path>
                <path d="M88 40h10"></path>
                <rect x="60" y="29" width="28" height="22" rx="10" ry="10"></rect>
                <text x="74" y="44">(</text>
            </g>
            <path d="M98 40h0"></path>
        </g>
        <path d="M98 40h10"></path>
        <g>
            <path d="M108 40h0"></path>
            <path d="M196 40h0"></path>
            <path d="M108 40a10 10 0 0 0 10 -10v0a10 10 0 0 1 10 -10"></path>
            <g>
                <path d="M128 20h48"></path>
            </g>
            <path d="M176 20a10 10 0 0 1 10 10v0a10 10 0 0 0 10 10"></path>
            <path d="M108 40h20"></path>
            <g>
                <path d="M128 40h0"></path>
                <path d="M176 40h0"></path>
                <path d="M128 40h10"></path>
                <g>
                    <path d="M138 40h0"></path>
                    <path d="M166 40h0"></path>
                    <g class="terminal ">
                        <path d="M138 40h0"></path>
                        <path d="M166 40h0"></path>
                        <rect x="138" y="29" width="28" height="22" rx="10" ry="10"></rect>
                        <text x="152" y="44">&#42;</text>
                    </g>
                </g>
                <path d="M166 40h10"></path>
                <path d="M138 40a10 10 0 0 0 -10 10v0a10 10 0 0 0 10 10"></path>
                <g>
                    <path d="M138 60h28"></path>
                </g>
                <path d="M166 60a10 10 0 0 0 10 -10v0a10 10 0 0 0 -10 -10"></path>
            </g>
            <path d="M176 40h20"></path>
        </g>
        <path d="M196 40h10"></path>
        <g>
            <path d="M206 40h0"></path>
            <g class="terminal ">
                <path d="M206 40h10"></path>
                <path d="M244 40h10"></path>
                <rect x="216" y="29" width="28" height="22" rx="10" ry="10"></rect>
                <text x="230" y="44">)</text>
            </g>
            <path d="M254 40h0"></path>
        </g>
        <path d="M254 40h10"></path>
        <path d="M264 40h10"></path>
        <g>
            <path d="M274 40h0"></path>
            <path d="M302 40h0"></path>
            <g class="terminal ">
                <path d="M274 40h0"></path>
                <path d="M302 40h0"></path>
                <rect x="274" y="29" width="28" height="22" rx="10" ry="10"></rect>
                <text x="288" y="44">;</text>
            </g>
        </g>
        <path d="M302 40h10"></path>
        <path d="M 312 40 h 20 m 0 -10 v 20"></path>
    </g>
    <style>svg.railroad-diagram {
        background-color: hsl(30,20%,95%);
        }
        svg.railroad-diagram path {
        stroke-width: 3;
        stroke: black;
        fill: rgba(0,0,0,0);
        }
        svg.railroad-diagram text {
        font: bold 14px monospace;
        text-anchor: middle;
        white-space: pre;
        }
        svg.railroad-diagram text.diagram-text {
        font-size: 12px;
        }
        svg.railroad-diagram text.diagram-arrow {
        font-size: 16px;
        }
        svg.railroad-diagram text.label {
        text-anchor: start;
        }
        svg.railroad-diagram text.comment {
        font: italic 12px monospace;
        }
        svg.railroad-diagram g.non-terminal text {
        /&#42;font-style: italic;&#42;/
        }
        svg.railroad-diagram rect {
        stroke-width: 3;
        stroke: black;
        fill: hsl(120,100%,90%);
        }
        svg.railroad-diagram rect.group-box {
        stroke: gray;
        stroke-dasharray: 10 5;
        fill: none;
        }
        svg.railroad-diagram path.diagram-text {
        stroke-width: 3;
        stroke: black;
        fill: white;
        cursor: help;
        }
        svg.railroad-diagram g.diagram-text:hover path.diagram-text {
        fill: #eee;
        }

        svg.railroad-diagram g.non-terminal rect {
        fill: hsl(60,100%,90%);
        }
    </style>
</svg>
