<svg class="railroad-diagram" width="328" height="62" viewBox="0 0 328 62" xmlns="http://www.w3.org/2000/svg" xmlns:xlink="http://www.w3.org/1999/xlink">
    <g transform="translate(.5 .5)">
        <g>
            <path d="M20 21v20m0 -10h20"></path>
        </g>
        <path d="M40 31h10"></path>
        <g>
            <path d="M50 31h0"></path>
            <g class="terminal ">
                <path d="M50 31h10"></path>
                <path d="M192 31h10"></path>
                <rect x="60" y="20" width="132" height="22" rx="10" ry="10"></rect>
                <text x="126" y="35">IdentifierList</text>
            </g>
            <path d="M202 31h0"></path>
        </g>
        <path d="M202 31h10"></path>
        <path d="M212 31h10"></path>
        <g>
            <path d="M222 31h0"></path>
            <g class="terminal ">
                <path d="M222 31h10"></path>
                <path d="M268 31h10"></path>
                <rect x="232" y="20" width="36" height="22" rx="10" ry="10"></rect>
                <text x="250" y="35">:=</text>
            </g>
            <path d="M278 31h0"></path>
        </g>
        <path d="M278 31h10"></path>
        <path d="M 288 31 h 20 m 0 -10 v 20"></path>
    </g>
    <style>svg.railroad-diagram {
        background-color: hsl(30,20%,95%);
        }
        svg.railroad-diagram path {
        stroke-width: 3;
        stroke: black;
        fill: rgba(0,0,0,0);
        }
        svg.railroad-diagram text {
        font: bold 14px monospace;
        text-anchor: middle;
        white-space: pre;
        }
        svg.railroad-diagram text.diagram-text {
        font-size: 12px;
        }
        svg.railroad-diagram text.diagram-arrow {
        font-size: 16px;
        }
        svg.railroad-diagram text.label {
        text-anchor: start;
        }
        svg.railroad-diagram text.comment {
        font: italic 12px monospace;
        }
        svg.railroad-diagram g.non-terminal text {
        /&#42;font-style: italic;&#42;/
        }
        svg.railroad-diagram rect {
        stroke-width: 3;
        stroke: black;
        fill: hsl(120,100%,90%);
        }
        svg.railroad-diagram rect.group-box {
        stroke: gray;
        stroke-dasharray: 10 5;
        fill: none;
        }
        svg.railroad-diagram path.diagram-text {
        stroke-width: 3;
        stroke: black;
        fill: white;
        cursor: help;
        }
        svg.railroad-diagram g.diagram-text:hover path.diagram-text {
        fill: #eee;
        }

        svg.railroad-diagram g.non-terminal rect {
        fill: hsl(60,100%,90%);
        }
    </style>
</svg>
